<?xml version="1.0" encoding="UTF-8"?>
<svg width="1200pt" height="1200pt" version="1.1" viewBox="0 0 1200 1200" xmlns="http://www.w3.org/2000/svg">
 <g>
  <path d="m312.83 207.83h20.832v20.832c0 6.832 5.668 12.5 12.5 12.5 6.832 0 12.5-5.668 12.5-12.5v-20.832h20.832c6.832 0 12.5-5.668 12.5-12.5s-5.668-12.5-12.5-12.5h-20.832l0.003907-20.832c0-6.832-5.668-12.5-12.5-12.5s-12.5 5.668-12.5 12.5v20.832h-20.832c-6.832 0-12.5 5.668-12.5 12.5-0.003907 6.8359 5.6641 12.5 12.496 12.5z"/>
  <path d="m905 220.5c10.5 0 20.5 4 28 11.168 2.332 2.332 5.5 3.5 8.668 3.5 3.332 0 6.668-1.332 9-3.832 4.668-5 4.5-13-0.5-17.668-2.168-2-4.332-3.832-6.668-5.5 5.668-4.168 10.668-9.168 14.832-14.832 2.5 3.5 5.332 6.668 8.5 9.5 5 4.668 13 4.332 17.668-0.66797s4.332-13-0.66797-17.668c-8.332-7.668-13-18.168-13-29.668 0-6.832-5.668-12.5-12.5-12.5s-12.5 5.668-12.5 12.5c0 22.5-18.332 40.832-40.832 40.832-6.832 0-12.5 5.668-12.5 12.5 0 6.8359 5.668 12.336 12.5 12.336z"/>
  <path d="m555.17 465c-4.832-4.832-12.832-4.832-17.668 0l-35.668 35.668c-2.332 2.332-3.668 5.5-3.668 8.832s1.332 6.5 3.668 8.832l35.668 35.668c2.5 2.5 5.668 3.668 8.832 3.668 3.168 0 6.332-1.168 8.832-3.668l35.668-35.668c2.332-2.332 3.668-5.5 3.668-8.832s-1.332-6.5-3.668-8.832zm-8.8359 62.5-18-18 18-18 18 18z"/>
  <path d="m684.5 557.67c3.168 0 6.332-1.168 8.832-3.668l35.668-35.668c2.332-2.332 3.668-5.5 3.668-8.832s-1.332-6.5-3.668-8.832l-35.668-35.668c-4.832-4.832-12.832-4.832-17.668 0l-35.668 35.668c-2.332 2.332-3.668 5.5-3.668 8.832s1.332 6.5 3.668 8.832l35.668 35.668c2.5039 2.5 5.668 3.668 8.8359 3.668zm0-66 18 18-18 18-18-18z"/>
  <path d="m1031 390.33c3.5 0 7-1.5 9.5-4.332l62.332-72c4.5-5.168 4-13.168-1.332-17.668s-13.168-4-17.668 1.332l-62.332 72c-4.5 5.168-4 13.168 1.332 17.668 2.3359 2 5.3359 3 8.168 3z"/>
  <path d="m971.17 447.17c2.332 2 5.332 3 8.168 3 3.5 0 7-1.5 9.5-4.332l28-32.332c4.5-5.168 4-13.168-1.332-17.668-5.168-4.5-13.168-4-17.668 1.332l-28 32.332c-4.5039 5.168-3.8359 13.168 1.332 17.668z"/>
  <path d="m1104.5 440.5c-3-6.168-10.5-8.832-16.668-5.832l-89.668 43.668c-6.168 3-8.832 10.5-5.832 16.668 2.168 4.5 6.668 7 11.332 7 1.832 0 3.668-0.33203 5.5-1.332l89.668-43.668c6.168-2.8359 8.8359-10.336 5.668-16.504z"/>
  <path d="m214.17 389.67c2.5 2.832 6 4.332 9.5 4.332 2.832 0 5.832-1 8.168-3 5.168-4.5 5.832-12.5 1.332-17.668l-65.5-75.668c-4.5-5.332-12.5-5.832-17.668-1.332s-5.832 12.5-1.332 17.668z"/>
  <path d="m262.67 445.83c2.5 2.832 6 4.332 9.5 4.332 2.832 0 5.832-1 8.168-3 5.168-4.5 5.832-12.332 1.332-17.668l-23.332-27c-4.5-5.168-12.332-5.832-17.668-1.332-5.168 4.5-5.832 12.332-1.332 17.668z"/>
  <path d="m247.83 502c4.668 0 9.168-2.668 11.168-7 3-6.168 0.5-13.668-5.832-16.668l-89.668-43.668c-6.168-3-13.668-0.5-16.668 5.832-3 6.168-0.5 13.668 5.832 16.668l89.668 43.668c1.8359 0.83594 3.668 1.168 5.5 1.168z"/>
  <path d="m555.17 870.83c-4.832-4.832-12.832-4.832-17.668 0l-35.668 35.668c-2.332 2.332-3.668 5.5-3.668 8.832s1.332 6.5 3.668 8.832l35.668 35.668c2.5 2.5 5.668 3.668 8.832 3.668 3.168 0 6.332-1.168 8.832-3.668l35.668-35.668c2.332-2.332 3.668-5.5 3.668-8.832s-1.332-6.5-3.668-8.832zm-8.8359 62.5-18-18 18-18 18 18z"/>
  <path d="m675.67 870.83-35.668 35.668c-2.332 2.332-3.668 5.5-3.668 8.832s1.332 6.5 3.668 8.832l35.668 35.668c2.5 2.5 5.668 3.668 8.832 3.668 3.168 0 6.332-1.168 8.832-3.668l35.668-35.668c2.332-2.332 3.668-5.5 3.668-8.832s-1.332-6.5-3.668-8.832l-35.668-35.668c-4.832-4.832-12.664-4.832-17.664 0zm8.832 62.5-18-18 18-18 18 18z"/>
  <path d="m1062.5 838.17c-6.5-19.168-20.332-59-38.832-110v-0.16797c-0.16797-0.33203-0.16797-0.5-0.33203-0.83203l-5.668-15.168c-3.5-9.668-7.168-19.332-10.832-29.168-2.5-6.5-9.668-9.668-16.168-7.332-6.5 2.5-9.668 9.668-7.332 16.168 3.168 8.5 6.332 16.832 9.332 25.168-32.5-3.332-71-5.5-100.17-1.168-22.5 3.168-39.668 13.668-52.5 24.168l-29.832-62.168c4.332-4.832 8.5-9.668 12.668-14.668 21-25.168 40.832-49 73-53.832 15.332-2.168 33.168-1.668 51.5 1.668 1.5 0.33203 2.832 0.16797 4.168-0.16797 5.332 13.5 10.832 27 16.168 40.832 2 5 6.668 8 11.668 8 1.5 0 3-0.33203 4.5-0.83203 6.5-2.5 9.668-9.668 7.168-16.168-9.832-25.5-20-50.5-30-74.5-20-47.832-37.668-85.332-52.668-111.17-52.5-90.332-136.33-102.83-173-103.83 1.332-4.5 2.168-9 2.168-14v-30c0-27.832-22.668-50.5-50.5-50.5h-90.832c-6.832 0-12.5 5.668-12.5 12.5s5.668 12.5 12.5 12.5h90.832c14 0 25.5 11.5 25.5 25.5v30c0 12.332-8.832 22.668-20.332 25v-28.5c0-6.832-5.668-12.5-12.5-12.5s-12.5 5.668-12.5 12.5v29h-37v-29c0-6.832-5.668-12.5-12.5-12.5s-12.5 5.668-12.5 12.5v29h-37v-29c0-6.832-5.668-12.5-12.5-12.5s-12.5 5.668-12.5 12.5v29h-2.168c-14 0-25.5-11.5-25.5-25.5v-30c0-14 11.5-25.5 25.5-25.5h3.668c6.832 0 12.5-5.668 12.5-12.5s-5.668-12.5-12.5-12.5h-3.668c-27.832 0-50.5 22.668-50.5 50.5v30c0 4.832 1 9.5 2.168 14-38.832 1.832-118.17 17-168.5 103.67-14 24-30.832 59.168-50 104.5-8.5 20.168-17 41.332-25.668 62.832-2.5 6.332 0.5 13.668 7 16.168 1.5 0.66797 3.168 0.83203 4.668 0.83203 5 0 9.668-3 11.668-7.832 4-9.832 7.832-19.668 11.832-29.332 1.168 0.16797 2.332 0.5 3.668 0.33203 23.5-2.832 80.168-6.168 99.668 25.832 13.168 21.832 24 37 35 48.832l-26 53.832c-34-34.5-94.168-42.168-146.67-40.832 2.668-6.832 5.168-13.668 7.832-20.668 2.5-6.5-0.66797-13.668-7.168-16.168s-13.668 0.66797-16.168 7.168c-5 13-9.832 26-14.5 38.668-23.668 64.168-42 117.17-48.832 137-7.168 21-2.168 43.668 11.168 59.332-2.5 2.832-4.668 5.832-6.332 9.332l-4.332 9.168c-4.5 9.668-5 20.332-1.332 30.332 3.668 10 11 18 20.5 22.332l40.668 19.168c5.332 2.5 11 3.668 16.832 3.668 4.668 0 9.168-0.83203 13.668-2.5 10-3.668 17.832-11 22.168-20.332l4.332-9c1.832-3.832 2.832-7.832 3.332-12 19.5-3.168 36.668-15.5 45.5-34l5.332-11c3-6.168 0.5-13.668-5.832-16.668-6.168-3-13.668-0.5-16.668 5.832l-5.332 11c-6.5 13.5-20.5 21.668-35.5 20.668-5.332-0.33203-10.332-1.668-15.168-4.5l-52.5-29c-0.16797 0-2.832-1.832-3-2-13.668-9-19.332-26.332-14.168-41.832 6.5-18.832 23.5-68.332 45.668-128.67 45.168-2.168 115.5 1.668 144.33 40.168l-30.168 62.668c-3 6.168-0.33203 13.668 5.832 16.668 6.168 3 13.668 0.33203 16.668-5.832l54-112.33v219.5c0 17 6.332 32.332 16.5 44.5-0.33203 2-0.5 4-0.5 6.168v25.5c0 23 18.832 41.832 41.832 41.832h244.5c23 0 41.668-18.832 41.668-41.832l-0.007812-20.84c11.668-8.832 20.668-21.332 24.832-36.168 1.832-6.668-2-13.5-8.5-15.5-6.668-2-13.5 2-15.5 8.5-5.5 19-23 32.332-42.832 32.332l-231.84 0.003906c-24.5 0-44.5-20-44.5-44.5v-102.33c17 8.832 36.332 13.5 60.332 13.832 42.5 0.66797 58.168-16.168 70.332-29.668 10.168-11.332 17.5-19.5 42.332-19.5 20 0 30.332 9.5 43.332 21.332 14 12.832 31 28.332 61.832 28.332 3.668 0 7.668-0.16797 11.668-0.66797 12.332-1.5 22.668-5.832 31.5-11v42.832c0 6.832 5.668 12.5 12.5 12.5 6.832 0 12.5-5.668 12.5-12.5v-68.168-0.66797-93.668l54.332 113.33c3 6.168 10.5 8.832 16.668 5.832 6.168-3 8.832-10.5 5.832-16.668l-27.832-57.832c14.668-13.332 28.832-20.668 44.832-23 30.332-4.5 73-1.332 106.17 2.668 17.332 47.668 30.168 84.832 36.5 103.33 5.332 15.5-0.33203 32.668-14 41.832-0.33203 0.33203-2.5 1.668-2.832 2l-52.832 29c-4.668 2.668-9.832 4.168-15.332 4.5-14.832 0.83203-28.668-7-35.168-20.668l-7.332-15c-3-6.168-10.5-8.832-16.668-5.668-6.168 3-8.832 10.5-5.668 16.668l7.332 15c9 18.668 26.168 31.168 45.832 34.168 0.5 4.168 1.668 8.168 3.332 12l4.332 8.832c4.5 9.668 12.5 17 22.332 20.668 4.332 1.668 9 2.332 13.5 2.332 5.668 0 11.5-1.332 16.832-3.832l40.832-19.168c19.668-9.168 28.168-32.832 19-52.668l-4.332-9.5c-1.668-3.5-4-6.5-6.5-9.332 13.68-16.316 18.348-38.652 11.18-59.316zm-796.33 108.33c-0.16797 0.83203-0.33203 1.832-0.66797 2.5l-4.332 9.168c-1.668 3.5-4.5 6.332-8.168 7.668-3.668 1.332-7.668 1.168-11.332-0.5l-40.668-19.168c-3.5-1.668-6.332-4.5-7.668-8.332-1.332-3.668-1.168-7.668 0.5-11.168l4.332-9c0.83203-1.832 2-3.332 3.332-4.5l50.332 27.832c4.5039 2.5 9.3398 4.332 14.34 5.5zm466.66 61.168c5.832 0 11.5-1 17-2.332v9c0 9.332-7.5 16.832-16.668 16.832h-244.5c-9.332 0-16.832-7.5-16.832-16.832v-13c8.668 4 18.332 6.332 28.5 6.332h232.5zm10.168-183c-27 3.168-38.832-7.668-53.832-21.332-14.332-13.168-30.5-28-60.332-28-35.832 0-49.668 15.332-60.832 27.668-11 12.332-19.668 22.332-51.5 21.5-26-0.33203-44.5-6.168-60.832-18.332l-0.003906-101.17c17 8.668 36.668 13.168 60.332 13.5h2.332c41.168 0 56.168-16.5 68-29.668 6.332-7 11.168-12.332 19.5-15.832 6.332-2.668 9.5-9.832 6.832-16.332-2.668-6.332-9.832-9.5-16.332-6.832-13.668 5.5-21.668 14.332-28.668 22.168-11 12.168-20 22-51.332 21.5-26.168-0.33203-45.332-6.332-60.668-17.5v-11.5c0.16797-3 2.668-49 2.832-93.332v-0.16797c0.16797-27.168-0.5-53.5-3-69.168-6.332-39.168-23.832-69.168-24.5-70.332-3.5-6-11.168-7.832-17.168-4.332s-8 11.168-4.5 17.168c0.16797 0.33203 15.832 27.332 21.5 61.668 1.332 8.668 2.168 21.332 2.5 35.668l-62.332-60.668c-5-4.832-12.832-4.668-17.668 0.16797-4.832 5-4.668 12.832 0.16797 17.668l80 77.832c-0.33203 29.5-1.5 59.332-2.332 75.168-7-9-14.332-19.832-23-34.168-23.668-39.168-78-41.832-114-38.832 1-2.5 2-5 3-7.332 18.832-44.5 35.168-78.668 48.668-101.83 53.832-92.668 144.83-92.332 163.5-91.332 8.668 7 19.668 11.5 31.668 11.5h146c12 0 22.832-4.332 31.5-11.332 0.5 0 0.83203 0.16797 1.332 0.16797 4.5-0.5 107.83-10.332 166.83 91 14.168 24.5 32 62 51.332 108.17 1 2.332 1.832 4.668 2.832 7-17.168-2.168-33.668-2.332-48.668-0.16797-41.832 6.168-66.668 36.168-88.668 62.5-0.66797 0.83203-1.332 1.5-2 2.332-0.66797-16.332-1.832-44.668-2.168-73l80-77.832c5-4.832 5-12.668 0.16797-17.668-4.832-4.832-12.668-5-17.668-0.16797l-62.332 60.668c0.33203-14.332 1.168-27 2.5-35.668 5.5-34.332 21.332-61.332 21.5-61.668 3.5-6 1.5-13.668-4.5-17.168-5.832-3.5-13.668-1.5-17.168 4.332-0.66797 1.332-18.168 31.168-24.5 70.332-2.5 15.668-3.168 42.168-3 69.332v0.16797c0.16797 42 2.5 85.168 2.832 92.332 0 0.16797-0.16797 0.33203-0.16797 0.5v12.168c-11.668 10.5-22.5 16.168-34.5 17.5-27.168 3.168-38.832-7.668-53.832-21.168-6.332-5.832-13-11.832-21-16.832-5.832-3.668-13.5-1.832-17.168 4s-1.832 13.5 4 17.168c6.168 3.832 11.5 8.832 17.332 14 14 12.832 31 28.332 61.832 28.332 3.668 0 7.668-0.16797 11.668-0.66797 11-1.168 21.332-5.168 31.668-11.332v100c-11.488 10.492-22.156 16.156-33.988 17.492zm289.5 121.5-40.832 19.168c-3.668 1.668-7.668 1.832-11.332 0.5-3.668-1.332-6.668-4-8.332-7.832l-4.332-8.832c-0.33203-0.83203-0.5-1.832-0.66797-2.668 5-1.332 9.832-3 14.332-5.5l50.5-27.832c1.332 1.168 2.5 2.5 3.332 4.332l4.168 9.168c3.6641 7.3281 0.49609 16.16-6.8359 19.496z"/>
 </g>
</svg>
