<?xml version="1.0" encoding="utf-8"?>
<!-- Generator: Adobe Illustrator 25.4.1, SVG Export Plug-In . SVG Version: 6.00 Build 0)  -->
<svg version="1.1" id="Layer_1" xmlns="http://www.w3.org/2000/svg" xmlns:xlink="http://www.w3.org/1999/xlink" x="0px" y="0px"
	 viewBox="0 0 1200 1200" style="enable-background:new 0 0 1200 1200;" xml:space="preserve">
<style type="text/css">
	.st0{fill:#4949FC;}
</style>
<g>
	<path class="st0" d="M315.7,312.5h20.8v20.8c0,6.8,5.7,12.5,12.5,12.5s12.5-5.7,12.5-12.5v-20.8h20.8c6.8,0,12.5-5.7,12.5-12.5
		s-5.7-12.5-12.5-12.5h-20.8l0-20.8c0-6.8-5.7-12.5-12.5-12.5s-12.5,5.7-12.5,12.5v20.8h-20.8c-6.8,0-12.5,5.7-12.5,12.5
		C303.2,306.8,308.9,312.5,315.7,312.5L315.7,312.5z"/>
	<path class="st0" d="M822.2,320.4c10.5,0,20.5,4,28,11.2c2.3,2.3,5.5,3.5,8.7,3.5c3.3,0,6.7-1.3,9-3.8c4.7-5,4.5-13-0.5-17.7
		c-2.2-2-4.3-3.8-6.7-5.5c5.7-4.2,10.7-9.2,14.8-14.8c2.5,3.5,5.3,6.7,8.5,9.5c5,4.7,13,4.3,17.7-0.7s4.3-13-0.7-17.7
		c-8.3-7.7-13-18.2-13-29.7c0-6.8-5.7-12.5-12.5-12.5s-12.5,5.7-12.5,12.5c0,22.5-18.3,40.8-40.8,40.8c-6.8,0-12.5,5.7-12.5,12.5
		C809.7,314.9,815.4,320.4,822.2,320.4L822.2,320.4z"/>
	<path class="st0" d="M555.2,465c-4.8-4.8-12.8-4.8-17.7,0l-35.7,35.7c-2.3,2.3-3.7,5.5-3.7,8.8c0,3.3,1.3,6.5,3.7,8.8l35.7,35.7
		c2.5,2.5,5.7,3.7,8.8,3.7c3.2,0,6.3-1.2,8.8-3.7l35.7-35.7c2.3-2.3,3.7-5.5,3.7-8.8s-1.3-6.5-3.7-8.8L555.2,465z M546.3,527.5
		l-18-18l18-18l18,18L546.3,527.5z"/>
	<path class="st0" d="M684.5,557.7c3.2,0,6.3-1.2,8.8-3.7l35.7-35.7c2.3-2.3,3.7-5.5,3.7-8.8s-1.3-6.5-3.7-8.8L693.3,465
		c-4.8-4.8-12.8-4.8-17.7,0L640,500.7c-2.3,2.3-3.7,5.5-3.7,8.8s1.3,6.5,3.7,8.8l35.7,35.7C678.2,556.5,681.3,557.7,684.5,557.7
		L684.5,557.7z M684.5,491.7l18,18l-18,18l-18-18L684.5,491.7z"/>
	<path class="st0" d="M1031,390.3c3.5,0,7-1.5,9.5-4.3l62.3-72c4.5-5.2,4-13.2-1.3-17.7s-13.2-4-17.7,1.3l-62.3,72
		c-4.5,5.2-4,13.2,1.3,17.7C1025.2,389.3,1028.2,390.3,1031,390.3z"/>
	<path class="st0" d="M971.2,447.2c2.3,2,5.3,3,8.2,3c3.5,0,7-1.5,9.5-4.3l28-32.3c4.5-5.2,4-13.2-1.3-17.7
		c-5.2-4.5-13.2-4-17.7,1.3l-28,32.3C965.3,434.7,966,442.7,971.2,447.2z"/>
	<path class="st0" d="M1104.5,440.5c-3-6.2-10.5-8.8-16.7-5.8l-89.7,43.7c-6.2,3-8.8,10.5-5.8,16.7c2.2,4.5,6.7,7,11.3,7
		c1.8,0,3.7-0.3,5.5-1.3l89.7-43.7C1105,454.2,1107.7,446.7,1104.5,440.5z"/>
	<path class="st0" d="M214.2,389.7c2.5,2.8,6,4.3,9.5,4.3c2.8,0,5.8-1,8.2-3c5.2-4.5,5.8-12.5,1.3-17.7l-65.5-75.7
		c-4.5-5.3-12.5-5.8-17.7-1.3s-5.8,12.5-1.3,17.7L214.2,389.7z"/>
	<path class="st0" d="M262.7,445.8c2.5,2.8,6,4.3,9.5,4.3c2.8,0,5.8-1,8.2-3c5.2-4.5,5.8-12.3,1.3-17.7l-23.3-27
		c-4.5-5.2-12.3-5.8-17.7-1.3c-5.2,4.5-5.8,12.3-1.3,17.7L262.7,445.8z"/>
	<path class="st0" d="M247.8,502c4.7,0,9.2-2.7,11.2-7c3-6.2,0.5-13.7-5.8-16.7l-89.7-43.7c-6.2-3-13.7-0.5-16.7,5.8
		c-3,6.2-0.5,13.7,5.8,16.7l89.7,43.7C244.2,501.7,246,502,247.8,502L247.8,502z"/>
	<path class="st0" d="M555.2,870.8c-4.8-4.8-12.8-4.8-17.7,0l-35.7,35.7c-2.3,2.3-3.7,5.5-3.7,8.8s1.3,6.5,3.7,8.8l35.7,35.7
		c2.5,2.5,5.7,3.7,8.8,3.7c3.2,0,6.3-1.2,8.8-3.7l35.7-35.7c2.3-2.3,3.7-5.5,3.7-8.8s-1.3-6.5-3.7-8.8L555.2,870.8z M546.3,933.3
		l-18-18l18-18l18,18L546.3,933.3z"/>
	<path class="st0" d="M675.7,870.8L640,906.5c-2.3,2.3-3.7,5.5-3.7,8.8s1.3,6.5,3.7,8.8l35.7,35.7c2.5,2.5,5.7,3.7,8.8,3.7
		c3.2,0,6.3-1.2,8.8-3.7l35.7-35.7c2.3-2.3,3.7-5.5,3.7-8.8s-1.3-6.5-3.7-8.8l-35.7-35.7C688.5,866,680.7,866,675.7,870.8
		L675.7,870.8z M684.5,933.3l-18-18l18-18l18,18L684.5,933.3z"/>
	<path class="st0" d="M557.6,376.8c-8.8,0-35-21.3-40.3-23c-5.4-1.8-27.2-0.2-27.2-0.2c-38.8,1.8-118.2,17-168.5,103.7
		c-14,24-30.8,59.2-50,104.5c-8.5,20.2-17,41.3-25.7,62.8c-2.5,6.3,0.5,13.7,7,16.2c1.5,0.7,3.2,0.8,4.7,0.8c5,0,9.7-3,11.7-7.8
		c4-9.8,7.8-19.7,11.8-29.3c1.2,0.2,2.3,0.5,3.7,0.3c23.5-2.8,80.2-6.2,99.7,25.8c13.2,21.8,24,37,35,48.8l-26,53.8
		c-34-34.5-94.2-42.2-146.7-40.8c2.7-6.8,5.2-13.7,7.8-20.7c2.5-6.5-0.7-13.7-7.2-16.2s-13.7,0.7-16.2,7.2c-5,13-9.8,26-14.5,38.7
		c-23.7,64.2-42,117.2-48.8,137c-7.2,21-2.2,43.7,11.2,59.3c-2.5,2.8-4.7,5.8-6.3,9.3l-4.3,9.2c-4.5,9.7-5,20.3-1.3,30.3
		s11,18,20.5,22.3l40.7,19.2c5.3,2.5,11,3.7,16.8,3.7c4.7,0,9.2-0.8,13.7-2.5c10-3.7,17.8-11,22.2-20.3l4.3-9
		c1.8-3.8,2.8-7.8,3.3-12c19.5-3.2,36.7-15.5,45.5-34l5.3-11c3-6.2,0.5-13.7-5.8-16.7c-6.2-3-13.7-0.5-16.7,5.8l-5.3,11
		c-6.5,13.5-20.5,21.7-35.5,20.7c-5.3-0.3-10.3-1.7-15.2-4.5l-52.5-29c-0.2,0-2.8-1.8-3-2c-13.7-9-19.3-26.3-14.2-41.8
		c6.5-18.8,23.5-68.3,45.7-128.7c45.2-2.2,115.5,1.7,144.3,40.2l-30.2,62.7c-3,6.2-0.3,13.7,5.8,16.7c6.2,3,13.7,0.3,16.7-5.8
		l54-112.3v219.5c0,17,6.3,32.3,16.5,44.5c-0.3,2-0.5,4-0.5,6.2v25.5c0,23,18.8,41.8,41.8,41.8h244.5c23,0,41.7-18.8,41.7-41.8
		l0-20.8c11.7-8.8,20.7-21.3,24.8-36.2c1.8-6.7-2-13.5-8.5-15.5c-6.7-2-13.5,2-15.5,8.5c-5.5,19-23,32.3-42.8,32.3l-231.8,0
		c-24.5,0-44.5-20-44.5-44.5V836.2c17,8.8,36.3,13.5,60.3,13.8c42.5,0.7,58.2-16.2,70.3-29.7c10.2-11.3,17.5-19.5,42.3-19.5
		c20,0,30.3,9.5,43.3,21.3c14,12.8,31,28.3,61.8,28.3c3.7,0,7.7-0.2,11.7-0.7c12.3-1.5,22.7-5.8,31.5-11v42.8
		c0,6.8,5.7,12.5,12.5,12.5s12.5-5.7,12.5-12.5v-68.2v-0.7v-93.7l54.3,113.3c3,6.2,10.5,8.8,16.7,5.8c6.2-3,8.8-10.5,5.8-16.7
		l-27.8-57.8c14.7-13.3,28.8-20.7,44.8-23c30.3-4.5,73-1.3,106.2,2.7c17.3,47.7,30.2,84.8,36.5,103.3c5.3,15.5-0.3,32.7-14,41.8
		c-0.3,0.3-2.5,1.7-2.8,2l-52.8,29c-4.7,2.7-9.8,4.2-15.3,4.5c-14.8,0.8-28.7-7-35.2-20.7l-7.3-15c-3-6.2-10.5-8.8-16.7-5.7
		c-6.2,3-8.8,10.5-5.7,16.7l7.3,15c9,18.7,26.2,31.2,45.8,34.2c0.5,4.2,1.7,8.2,3.3,12l4.3,8.8c4.5,9.7,12.5,17,22.3,20.7
		c4.3,1.7,9,2.3,13.5,2.3c5.7,0,11.5-1.3,16.8-3.8l40.8-19.2c19.7-9.2,28.2-32.8,19-52.7l-4.3-9.5c-1.7-3.5-4-6.5-6.5-9.3
		c13.7-16.3,18.3-38.7,11.2-59.3l0,0c-6.5-19.2-20.3-59-38.8-110v-0.2c-0.2-0.3-0.2-0.5-0.3-0.8l-5.7-15.2
		c-3.5-9.7-7.2-19.3-10.8-29.2c-2.5-6.5-9.7-9.7-16.2-7.3c-6.5,2.5-9.7,9.7-7.3,16.2c3.2,8.5,6.3,16.8,9.3,25.2
		c-32.5-3.3-71-5.5-100.2-1.2c-22.5,3.2-39.7,13.7-52.5,24.2l-29.8-62.2c4.3-4.8,8.5-9.7,12.7-14.7c21-25.2,40.8-49,73-53.8
		c15.3-2.2,33.2-1.7,51.5,1.7c1.5,0.3,2.8,0.2,4.2-0.2c5.3,13.5,10.8,27,16.2,40.8c2,5,6.7,8,11.7,8c1.5,0,3-0.3,4.5-0.8
		c6.5-2.5,9.7-9.7,7.2-16.2c-9.8-25.5-20-50.5-30-74.5c-20-47.8-37.7-85.3-52.7-111.2c-52.5-90.3-132.4-102.1-173-103.8
		c-17.6-0.7-23.5,0.4-27.1,3c-9.8,6.9-25.8,16.5-32.8,18.6s-23.9,1.2-36.4,1.3c-8.5,0.1-16.9,0.1-25,0L557.6,376.8z M266.2,946.5
		c-0.2,0.8-0.3,1.8-0.7,2.5l-4.3,9.2c-1.7,3.5-4.5,6.3-8.2,7.7c-3.7,1.3-7.7,1.2-11.3-0.5L201,946.2c-3.5-1.7-6.3-4.5-7.7-8.3
		c-1.3-3.7-1.2-7.7,0.5-11.2l4.3-9c0.8-1.8,2-3.3,3.3-4.5l50.3,27.8C256.3,943.5,261.2,945.3,266.2,946.5L266.2,946.5z
		 M732.8,1007.7c5.8,0,11.5-1,17-2.3v9c0,9.3-7.5,16.8-16.7,16.8H488.7c-9.3,0-16.8-7.5-16.8-16.8v-13c8.7,4,18.3,6.3,28.5,6.3
		L732.8,1007.7L732.8,1007.7z M743,824.7c-27,3.2-38.8-7.7-53.8-21.3c-14.3-13.2-30.5-28-60.3-28c-35.8,0-49.7,15.3-60.8,27.7
		c-11,12.3-19.7,22.3-51.5,21.5c-26-0.3-44.5-6.2-60.8-18.3l0-101.2c17,8.7,36.7,13.2,60.3,13.5h2.3c41.2,0,56.2-16.5,68-29.7
		c6.3-7,11.2-12.3,19.5-15.8c6.3-2.7,9.5-9.8,6.8-16.3c-2.7-6.3-9.8-9.5-16.3-6.8c-13.7,5.5-21.7,14.3-28.7,22.2
		c-11,12.2-20,22-51.3,21.5c-26.2-0.3-45.3-6.3-60.7-17.5v-11.5c0.2-3,2.7-49,2.8-93.3V571c0.2-27.2-0.5-53.5-3-69.2
		c-6.3-39.2-23.8-69.2-24.5-70.3c-3.5-6-11.2-7.8-17.2-4.3s-8,11.2-4.5,17.2c0.2,0.3,15.8,27.3,21.5,61.7c1.3,8.7,2.2,21.3,2.5,35.7
		L371,481c-5-4.8-12.8-4.7-17.7,0.2c-4.8,5-4.7,12.8,0.2,17.7l80,77.8c-0.3,29.5-1.5,59.3-2.3,75.2c-7-9-14.3-19.8-23-34.2
		c-23.7-39.2-78-41.8-114-38.8c1-2.5,2-5,3-7.3c18.8-44.5,35.2-78.7,48.7-101.8c53.8-92.7,140.5-91.3,159.1-90.3
		c8.7,7,32.9,21.9,44.9,21.9h123.8c12,0,36.2-15.8,44.8-22.8c1-0.2,2.8-0.4,3.3-0.4c4.9-0.3,105.8-9.7,164.8,91.6
		c14.2,24.5,32,62,51.3,108.2c1,2.3,1.8,4.7,2.8,7c-17.2-2.2-33.7-2.3-48.7-0.2c-41.8,6.2-66.7,36.2-88.7,62.5
		c-0.7,0.8-1.3,1.5-2,2.3c-0.7-16.3-1.8-44.7-2.2-73l80-77.8c5-4.8,5-12.7,0.2-17.7c-4.8-4.8-12.7-5-17.7-0.2l-62.3,60.7
		c0.3-14.3,1.2-27,2.5-35.7c5.5-34.3,21.3-61.3,21.5-61.7c3.5-6,1.5-13.7-4.5-17.2c-5.8-3.5-13.7-1.5-17.2,4.3
		c-0.7,1.3-18.2,31.2-24.5,70.3c-2.5,15.7-3.2,42.2-3,69.3v0.2c0.2,42,2.5,85.2,2.8,92.3c0,0.2-0.2,0.3-0.2,0.5v12.2
		c-11.7,10.5-22.5,16.2-34.5,17.5c-27.2,3.2-38.8-7.7-53.8-21.2c-6.3-5.8-13-11.8-21-16.8c-5.8-3.7-13.5-1.8-17.2,4
		s-1.8,13.5,4,17.2c6.2,3.8,11.5,8.8,17.3,14c14,12.8,31,28.3,61.8,28.3c3.7,0,7.7-0.2,11.7-0.7c11-1.2,21.3-5.2,31.7-11.3v100
		C765.5,817.7,754.8,823.3,743,824.7L743,824.7z M1032.5,946.2l-40.8,19.2c-3.7,1.7-7.7,1.8-11.3,0.5c-3.7-1.3-6.7-4-8.3-7.8
		l-4.3-8.8c-0.3-0.8-0.5-1.8-0.7-2.7c5-1.3,9.8-3,14.3-5.5l50.5-27.8c1.3,1.2,2.5,2.5,3.3,4.3l4.2,9.2
		C1043,934,1039.8,942.8,1032.5,946.2L1032.5,946.2z"/>
</g>
</svg>
